<?xml version="1.0" encoding="utf-8"?>
<!-- Generator: Adobe Illustrator 27.0.0, SVG Export Plug-In . SVG Version: 6.00 Build 0)  -->
<svg version="1.1" id="Layer_1" xmlns="http://www.w3.org/2000/svg" xmlns:xlink="http://www.w3.org/1999/xlink" x="0px" y="0px"
	 viewBox="0 0 230 40" style="enable-background:new 0 0 230 40;" xml:space="preserve">
<style type="text/css">
	.st0{fill:#FFFFFF;filter:url(#Adobe_OpacityMaskFilter);}
	.st1{mask:url(#mask0_1486_25952_00000132770267379997646320000004357019790948540800_);}
	.st2{fill-rule:evenodd;clip-rule:evenodd;fill:#EA4B71;}
	.st3{fill:#FFFFFF;}
	.st4{fill:#EA4B71;}
	.st5{fill:#F9FAFB;}
	.st6{fill:#F16241;}
</style>
<g>
	<g>
		<g>
			<path class="st5" d="M63.4,10.8h4.3v1.2c1.4-0.8,3-1.3,4.7-1.3c2.7,0,5.2,1,6.9,3.1c1.9-2,4-3.1,6.9-3.1c4.8,0,9.1,3.8,9.1,8.8
				v11h-4.3v-11c0-2.7-2.1-4.9-4.8-4.9c-2.6,0-4.7,2.2-4.7,4.9v11h-4.3v-11c0-2.7-2.1-4.9-4.8-4.9c-2.7,0-4.7,2.3-4.7,4.9v11h-4.3
				V10.8z"/>
			<path class="st5" d="M113.9,28.7c-1.7,1.2-3.7,1.8-5.8,1.8c-5.4,0-10.2-4.2-10.2-9.8s4.8-9.9,10.2-9.9c2.1,0,4.1,0.6,5.8,1.8V9.8
				h4.3v20.7h-4.3V28.7z M108,26.6c3.2,0,5.8-2.7,5.8-6c0-3.3-2.6-6-5.8-6c-3.2,0-5.9,2.7-5.9,6C102.1,24,104.8,26.6,108,26.6z"/>
			<path class="st5" d="M140.8,26.7c-1,0-1.8-1-1.8-1.9V14.6h-4.3v10.2c0,0.7,0.2,1.5,0.5,2.2c1,2.3,3.1,3.6,5.6,3.6h1.8v-3.8H140.8
				z"/>
			<rect x="134.8" y="8" class="st5" width="4.3" height="2.9"/>
			<path class="st5" d="M164,24.6c-1.8,3.7-5.5,5.9-9.4,5.9c-5.4,0-10.2-4.3-10.2-9.8c0-5.6,4.8-9.9,10.2-9.9
				c5.4,0,10.2,4.2,10.2,9.9v1.9H149c0.9,2.4,2.9,4.1,5.5,4.1c1.7,0,3.4-0.8,4.6-2.1H164z M160.1,18.7c-1-2.3-2.9-4-5.5-4
				c-2.7,0-4.6,1.7-5.5,4H160.1z"/>
			<path class="st5" d="M187.2,22.9c-1.5,4.8-5.7,8-10.2,8c-5.5,0-10.4-4.4-10.4-10.1c0-5.7,4.9-10,10.4-10c4.5,0,8.7,3.1,10.2,8
				h-4.5c-1-2.5-3.3-4.1-5.7-4.1c-3.3,0-6,2.7-6,6.2c0,3.4,2.7,6.2,6,6.2c2.4,0,4.7-1.6,5.7-4.1H187.2z"/>
			<path class="st5" d="M190.5,4.6h4.3v7.6c1.5-0.9,2.8-1.4,4.7-1.4c4.8,0,9.1,3.8,9.1,8.8v10.9h-4.3V19.6c0-2.7-2.1-4.9-4.8-4.9
				c-2.7,0-4.7,2.2-4.7,4.9v10.9h-4.3V4.6z"/>
			<path class="st5" d="M226.5,25.1c0,3.6-3.5,5.9-7.3,5.9c-3.5,0.1-7.2-1.8-7.8-6.8h4.1c0.4,2.4,1.8,2.9,3.4,2.9
				c1.8,0,3.4-0.7,3.4-2.1c0-1.8-2.6-2-5.1-2.7c-1.9-0.5-5.7-1.7-5.7-5.5c0-3.8,3.7-6,7.6-6c3.8,0,7.4,2.1,7.8,6.6l-4.3,0.1
				c0-0.3,0-1.7-1-2.6c-1.4-1.2-4-0.8-4.8,0.6c-0.1,0.1-0.5,0.9-0.2,1.7c0.5,1.4,2.6,1.6,5,2.1C224,20,226.5,22,226.5,25.1z"/>
			<path class="st6" d="M143.4,10.9v4.4h-3.8c0,0-0.1,0-0.1,0l-6.1,0l-3.1,0c-2.2,0-4,1.7-4,3.8l0,11.5l-4.6,0l0-11.5
				c0-4.5,3.8-8.2,8.5-8.2h3.1l6.1,0H143.4z"/>
		</g>
	</g>
	<path class="st6" d="M30.1,12.1v16.8c0,1-0.3,1.9-0.9,2.6l-1,1c-0.7,0.5-1.7,0.9-2.6,0.9h0c-0.7,0-1.4-0.2-2-0.5c0,0,0,0,0,0
		c-1-0.5-1.8-1.4-2.2-2.5c-0.2-0.5-0.3-1-0.3-1.5c0-0.3,0-0.6,0.1-0.9c-0.1,0.3-0.1,0.6-0.1,0.9V11.6c0.1-0.9,0.4-1.7,1-2.3
		c0,0,0,0,0,0l0.5-0.5c0,0,0,0,0,0c0.3-0.3,0.6-0.5,0.9-0.6c1-0.6,2.1-0.7,3.2-0.4c0,0,0.1,0,0.1,0c1,0.2,1.8,0.8,2.5,1.6
		c0,0,0,0,0,0c0.6,0.7,0.9,1.6,0.9,2.6h0C30.1,12,30.1,12.1,30.1,12.1z"/>
	<path class="st6" d="M47,12.1v16.8c0,1-0.3,1.9-0.9,2.6l-1,1c-0.7,0.5-1.7,0.9-2.6,0.9h0c-0.7,0-1.4-0.2-2-0.5c0,0,0,0,0,0
		c-1-0.5-1.8-1.4-2.2-2.5c-0.2-0.5-0.3-1-0.3-1.5c0-0.3,0-0.6,0.1-0.9c-0.1,0.3-0.1,0.6-0.1,0.9V11.6c0.1-0.9,0.4-1.7,1-2.3
		c0,0,0,0,0,0l0.5-0.5c0,0,0,0,0,0c0.3-0.3,0.6-0.5,0.9-0.6c1-0.6,2.1-0.7,3.2-0.4c0,0,0.1,0,0.1,0c1,0.2,1.8,0.8,2.5,1.6
		c0,0,0,0,0,0c0.6,0.7,0.9,1.6,0.9,2.6h0C47,12,47,12.1,47,12.1z"/>
	<path class="st5" d="M28.9,15.1L28.9,15.1l-17,17h0c-1.7,1.7-4.6,1.7-6.3,0c-1.8-1.8-1.7-4.6,0-6.3l0,0l17-17l0,0l0,0
		c0.2-0.2,0.4-0.4,0.7-0.5c0.1,0,0.1-0.1,0.2-0.1c0,0,0,0,0,0c0.1,0,0.1-0.1,0.2-0.1c0,0,0,0,0,0C23.7,8,23.8,8,23.8,8c0,0,0,0,0,0
		c0.1,0,0.1-0.1,0.2-0.1c0.1,0,0.1,0,0.2-0.1c0.2-0.1,0.4-0.1,0.6-0.2c0.1,0,0.1,0,0.2,0c0.1,0,0.3,0,0.4,0c0.1,0,0.3,0,0.4,0h0
		c0.3,0,0.6,0.1,0.8,0.1c0.1,0,0.1,0,0.2,0.1c0.1,0,0.1,0,0.2,0.1c0.1,0,0.2,0.1,0.2,0.1c0.1,0,0.1,0,0.2,0.1
		c0.2,0.1,0.4,0.2,0.6,0.3c0.1,0,0.1,0.1,0.2,0.1c0.1,0.1,0.2,0.2,0.3,0.3c0,0,0.1,0.1,0.1,0.1c0,0,0,0,0.1,0.1c0,0,0.1,0.1,0.1,0.1
		c0,0,0,0,0.1,0.1C29,9,29,9.1,29,9.1c0,0,0,0,0,0c0,0,0.1,0.1,0.1,0.1c0,0,0,0,0,0c0,0.1,0.1,0.1,0.1,0.2c0,0.1,0.1,0.1,0.1,0.2
		c0.4,0.7,0.7,1.4,0.7,2.2h0c0,0.1,0,0.1,0,0.2C30.1,13.2,29.7,14.2,28.9,15.1z"/>
	<path class="st5" d="M45.8,15.1L45.8,15.1L38,22.9l-7.9,7.9l-1.3,1.3h0c-1.7,1.7-4.6,1.7-6.3,0c-0.9-0.9-1.3-2-1.3-3.2
		s0.4-2.3,1.3-3.2l0,0l7.7-7.7l9.3-9.3l0,0l0,0c0,0,0,0,0.1-0.1c0,0,0,0,0,0c0.1-0.1,0.1-0.1,0.2-0.2c0,0,0.1-0.1,0.1-0.1
		c0,0,0.1-0.1,0.1-0.1c0.1,0,0.1-0.1,0.2-0.1c0.1,0,0.1-0.1,0.2-0.1c0.1,0,0.1-0.1,0.2-0.1C40.6,8,40.6,8,40.7,8
		c0.1,0,0.1-0.1,0.2-0.1c0.1,0,0.1,0,0.2-0.1c0.2-0.1,0.4-0.1,0.6-0.2c0.1,0,0.1,0,0.2,0c0.1,0,0.3,0,0.4,0c0.1,0,0.3,0,0.4,0h0
		c0.3,0,0.6,0.1,0.8,0.1c0.1,0,0.1,0,0.2,0.1c0.1,0,0.1,0,0.2,0.1c0.1,0,0.2,0.1,0.2,0.1c0,0,0.1,0,0.1,0.1c0.1,0,0.2,0.1,0.3,0.1
		c0.1,0.1,0.2,0.1,0.3,0.2c0,0,0,0,0.1,0c0.1,0,0.1,0.1,0.2,0.1c0.1,0.1,0.2,0.2,0.3,0.3c0,0,0.1,0.1,0.1,0.1c0,0,0,0,0.1,0.1
		c0,0,0.1,0.1,0.1,0.1c0,0,0,0,0.1,0.1c0,0,0.1,0.1,0.1,0.1c0,0,0,0,0,0c0,0,0.1,0.1,0.1,0.1c0,0,0,0,0,0c0,0.1,0.1,0.1,0.1,0.2
		c0.3,0.5,0.6,1,0.7,1.5c0.1,0.3,0.1,0.6,0.1,0.9h0c0,0.1,0,0.1,0,0.2C47,13.2,46.6,14.2,45.8,15.1z"/>
	<path class="st5" d="M51.7,26.1L51.7,26.1l-6,6h0c-0.4,0.4-0.9,0.8-1.5,1c-1.6,0.7-3.6,0.3-4.9-1c-0.9-0.9-1.3-2-1.3-3.2
		c0-0.6,0.1-1.2,0.3-1.7c0.2-0.5,0.5-1,1-1.5l0,0l6-6l0,0c0.5-0.5,1.1-0.8,1.7-1c1.6-0.5,3.3-0.1,4.6,1.1
		C53.2,21.6,53.3,24.3,51.7,26.1z"/>
</g>
</svg>
