<?xml version="1.0" encoding="utf-8"?>
<!-- Generator: Adobe Illustrator 27.0.0, SVG Export Plug-In . SVG Version: 6.00 Build 0)  -->
<svg version="1.1" id="Layer_1" xmlns="http://www.w3.org/2000/svg" xmlns:xlink="http://www.w3.org/1999/xlink" x="0px" y="0px"
	 viewBox="0 0 20.9 12.4" style="enable-background:new 0 0 20.9 12.4;" xml:space="preserve">
<style type="text/css">
	.st0{fill:#F16241;}
	.st1{fill:#F9FAFB;}
	.st2{opacity:0.6;fill:#121110;enable-background:new    ;}
	.st3{fill:#0F1212;}
</style>
<g>
	<path class="st0" d="M11.1,3v6.3c0,0.4-0.1,0.7-0.3,1l-0.4,0.4c-0.3,0.2-0.6,0.3-1,0.3l0,0c-0.3,0-0.6-0.1-0.8-0.2l0,0
		c-0.4-0.2-0.7-0.6-0.8-1C7.8,9.7,7.7,9.5,7.7,9.3c0-0.1,0-0.2,0-0.3c0,0.1,0,0.2,0,0.3V2.8c0-0.3,0.2-0.6,0.4-0.9l0,0l0.2-0.2l0,0
		c0.1-0.1,0.2-0.2,0.3-0.2C9,1.3,9.4,1.3,9.8,1.4h0c0.4,0.1,0.7,0.3,0.9,0.6l0,0c0.2,0.3,0.3,0.6,0.4,1l0,0C11.1,3,11.1,3,11.1,3z"
		/>
	<path class="st0" d="M17.4,3v6.3c0,0.4-0.1,0.7-0.3,1l-0.4,0.4c-0.3,0.2-0.6,0.3-1,0.3l0,0c-0.3,0-0.6-0.1-0.8-0.2l0,0
		c-0.4-0.2-0.7-0.6-0.8-1C14.1,9.7,14,9.5,14,9.3c0-0.1,0-0.2,0-0.3c0,0.1,0,0.2,0,0.3V2.8c0-0.3,0.2-0.6,0.4-0.9l0,0l0.2-0.2l0,0
		c0.1-0.1,0.2-0.2,0.3-0.2c0.4-0.2,0.8-0.3,1.2-0.2h0c0.4,0.1,0.7,0.3,0.9,0.6l0,0c0.2,0.3,0.3,0.6,0.4,1l0,0C17.4,3,17.4,3,17.4,3z
		"/>
	<path class="st1" d="M10.7,4.1L10.7,4.1l-6.4,6.4l0,0c-0.7,0.7-1.7,0.7-2.4,0c-0.7-0.7-0.7-1.7,0-2.4l0,0l6.4-6.4l0,0l0,0
		c0.1-0.1,0.2-0.1,0.3-0.2c0,0,0,0,0.1,0l0,0c0,0,0,0,0.1,0l0,0c0,0,0,0,0.1,0l0,0c0,0,0,0,0.1,0s0,0,0.1,0c0.1,0,0.1,0,0.2-0.1
		c0,0,0,0,0.1,0s0.1,0,0.1,0s0.1,0,0.1,0l0,0c0.1,0,0.2,0,0.3,0c0,0,0,0,0.1,0c0,0,0,0,0.1,0c0,0,0.1,0,0.1,0c0,0,0,0,0.1,0
		c0.1,0,0.1,0.1,0.2,0.1c0,0,0,0,0.1,0c0,0,0.1,0.1,0.1,0.1l0,0c0,0,0,0,0,0l0,0c0,0,0,0,0,0l0,0l0,0l0,0l0,0c0,0,0,0,0,0.1
		c0,0,0,0,0,0.1c0.1,0.3,0.3,0.6,0.3,0.8l0,0c0,0,0,0,0,0.1C11.1,3.4,10.9,3.8,10.7,4.1z"/>
	<path class="st1" d="M17,4.1L17,4.1L14,7.1l-3,3l-0.5,0.5l0,0c-0.7,0.7-1.7,0.7-2.4,0c-0.3-0.3-0.5-0.8-0.5-1.2s0.1-0.8,0.5-1.2
		l0,0l2.9-2.9l3.5-3.5l0,0l0,0c0,0,0,0,0,0l0,0c0,0,0,0,0.1-0.1l0,0l0,0c0,0,0,0,0.1,0c0,0,0,0,0.1,0c0,0,0,0,0.1,0c0,0,0,0,0.1,0
		c0,0,0,0,0.1,0c0,0,0,0,0.1,0c0.1,0,0.1,0,0.2-0.1c0,0,0,0,0.1,0c0,0,0.1,0,0.1,0c0,0,0.1,0,0.1,0l0,0c0.1,0,0.2,0,0.3,0
		c0,0,0,0,0.1,0c0,0,0,0,0.1,0c0,0,0.1,0,0.1,0c0,0,0,0,0,0c0,0,0.1,0,0.1,0c0.1,0,0.1,0,0.1,0c0,0,0,0,0,0c0,0,0,0,0.1,0
		c0,0,0.1,0.1,0.1,0.1l0,0c0,0,0,0,0,0l0,0c0,0,0,0,0,0l0,0l0,0l0,0l0,0c0,0,0,0,0,0.1c0.1,0.2,0.2,0.4,0.3,0.6c0,0.1,0,0.2,0,0.3
		l0,0c0,0,0,0,0,0.1C17.4,3.4,17.3,3.8,17,4.1z"/>
	<path class="st1" d="M19.2,8.3L19.2,8.3l-2.2,2.2l0,0c-0.1,0.1-0.4,0.3-0.6,0.4c-0.6,0.3-1.3,0.1-1.8-0.4c-0.3-0.3-0.5-0.8-0.5-1.2
		c0-0.2,0-0.4,0.1-0.6c0.1-0.2,0.2-0.4,0.4-0.6l0,0l2.2-2.2l0,0c0.2-0.2,0.4-0.3,0.6-0.4c0.6-0.2,1.3,0,1.7,0.4
		C19.8,6.6,19.8,7.6,19.2,8.3z"/>
</g>
</svg>
