<?xml version="1.0" encoding="utf-8"?>
<!-- Generator: Adobe Illustrator 27.0.0, SVG Export Plug-In . SVG Version: 6.00 Build 0)  -->
<svg version="1.1" id="Layer_1" xmlns="http://www.w3.org/2000/svg" xmlns:xlink="http://www.w3.org/1999/xlink" x="0px" y="0px"
	 viewBox="0 0 20.9 12.4" style="enable-background:new 0 0 20.9 12.4;" xml:space="preserve">
<style type="text/css">
	.st0{fill:#F16241;}
	.st1{fill:#F9FAFB;}
	.st2{opacity:0.6;fill:#121110;enable-background:new    ;}
	.st3{fill:#0F1212;}
</style>
<g>
	<path class="st0" d="M-11.8,3v6.3c0,0.4-0.1,0.7-0.3,1l-0.4,0.4c-0.3,0.2-0.6,0.3-1,0.3l0,0c-0.3,0-0.6-0.1-0.8-0.2l0,0
		c-0.4-0.2-0.7-0.6-0.8-1c-0.1-0.2-0.1-0.4-0.1-0.6c0-0.1,0-0.2,0-0.3c0,0.1,0,0.2,0,0.3V2.8c0-0.3,0.2-0.6,0.4-0.9l0,0l0.2-0.2l0,0
		c0.1-0.1,0.2-0.2,0.3-0.2c0.4-0.2,0.8-0.3,1.2-0.2h0c0.4,0.1,0.7,0.3,0.9,0.6l0,0c0.2,0.3,0.3,0.6,0.4,1l0,0C-11.8,3-11.8,3-11.8,3
		z"/>
	<path class="st0" d="M-5.5,3v6.3c0,0.4-0.1,0.7-0.3,1l-0.4,0.4c-0.3,0.2-0.6,0.3-1,0.3l0,0C-7.4,11-7.7,11-8,10.8l0,0
		c-0.4-0.2-0.7-0.6-0.8-1c-0.1-0.2-0.1-0.4-0.1-0.6c0-0.1,0-0.2,0-0.3c0,0.1,0,0.2,0,0.3V2.8c0-0.3,0.2-0.6,0.4-0.9l0,0l0.2-0.2l0,0
		C-8.2,1.6-8.1,1.6-8,1.5c0.4-0.2,0.8-0.3,1.2-0.2h0c0.4,0.1,0.7,0.3,0.9,0.6l0,0c0.2,0.3,0.3,0.6,0.4,1l0,0C-5.5,3-5.5,3-5.5,3z"/>
	<path class="st1" d="M-12.3,4.1L-12.3,4.1l-6.4,6.4l0,0c-0.7,0.7-1.7,0.7-2.4,0c-0.7-0.7-0.7-1.7,0-2.4l0,0l6.4-6.4l0,0l0,0
		c0.1-0.1,0.2-0.1,0.3-0.2c0,0,0,0,0.1,0l0,0c0,0,0,0,0.1,0l0,0c0,0,0,0,0.1,0l0,0c0,0,0,0,0.1,0c0,0,0,0,0.1,0c0.1,0,0.1,0,0.2-0.1
		c0,0,0,0,0.1,0c0,0,0.1,0,0.1,0c0,0,0.1,0,0.1,0l0,0c0.1,0,0.2,0,0.3,0c0,0,0,0,0.1,0c0,0,0,0,0.1,0c0,0,0.1,0,0.1,0c0,0,0,0,0.1,0
		c0.1,0,0.1,0.1,0.2,0.1c0,0,0,0,0.1,0c0,0,0.1,0.1,0.1,0.1l0,0c0,0,0,0,0,0l0,0c0,0,0,0,0,0l0,0l0,0l0,0l0,0c0,0,0,0,0,0.1
		c0,0,0,0,0,0.1c0.1,0.3,0.3,0.6,0.3,0.8l0,0c0,0,0,0,0,0.1C-11.8,3.4-12,3.8-12.3,4.1z"/>
	<path class="st1" d="M-5.9,4.1L-5.9,4.1l-2.9,2.9l-3,3l-0.5,0.5l0,0c-0.7,0.7-1.7,0.7-2.4,0c-0.3-0.3-0.5-0.8-0.5-1.2
		s0.1-0.8,0.5-1.2l0,0l2.9-2.9l3.5-3.5l0,0l0,0c0,0,0,0,0,0l0,0c0,0,0,0,0.1-0.1l0,0l0,0c0,0,0,0,0.1,0c0,0,0,0,0.1,0c0,0,0,0,0.1,0
		c0,0,0,0,0.1,0c0,0,0,0,0.1,0c0,0,0,0,0.1,0c0.1,0,0.1,0,0.2-0.1c0,0,0,0,0.1,0c0,0,0.1,0,0.1,0c0,0,0.1,0,0.1,0l0,0
		c0.1,0,0.2,0,0.3,0c0,0,0,0,0.1,0c0,0,0,0,0.1,0c0,0,0.1,0,0.1,0c0,0,0,0,0,0c0,0,0.1,0,0.1,0c0.1,0,0.1,0,0.1,0c0,0,0,0,0,0
		s0,0,0.1,0c0,0,0.1,0.1,0.1,0.1l0,0c0,0,0,0,0,0l0,0c0,0,0,0,0,0l0,0l0,0l0,0l0,0c0,0,0,0,0,0.1c0.1,0.2,0.2,0.4,0.3,0.6
		c0,0.1,0,0.2,0,0.3l0,0c0,0,0,0,0,0.1C-5.5,3.4-5.6,3.8-5.9,4.1z"/>
	<path class="st1" d="M-3.7,8.3L-3.7,8.3L-6,10.5l0,0c-0.1,0.1-0.4,0.3-0.6,0.4c-0.6,0.3-1.3,0.1-1.8-0.4c-0.3-0.3-0.5-0.8-0.5-1.2
		c0-0.2,0-0.4,0.1-0.6c0.1-0.2,0.2-0.4,0.4-0.6l0,0l2.2-2.2l0,0c0.2-0.2,0.4-0.3,0.6-0.4c0.6-0.2,1.3,0,1.7,0.4
		C-3.1,6.6-3.1,7.6-3.7,8.3z"/>
</g>
<g>
	<path class="st0" d="M11.1,3.2v6.2c0,0.4-0.1,0.7-0.3,1l-0.4,0.4c-0.3,0.2-0.6,0.3-1,0.3l0,0C9.2,11,9,11,8.7,10.9l0,0
		C8.3,10.7,8,10.3,7.9,10c0-0.2-0.1-0.3-0.1-0.5c0-0.1,0-0.2,0-0.3c0,0.1,0,0.2,0,0.3V3c0-0.3,0.2-0.6,0.4-0.8l0,0L8.4,2l0,0
		c0.1-0.1,0.2-0.2,0.3-0.3c0.3-0.2,0.8-0.3,1.2-0.2h0c0.3,0.1,0.7,0.3,0.9,0.6l0,0C11.1,2.4,11.2,2.7,11.1,3.2L11.1,3.2
		C11.1,3.2,11.1,3.2,11.1,3.2z"/>
	<path class="st0" d="M17.3,3.2v6.2c0,0.4-0.1,0.7-0.3,1l-0.3,0.4c-0.3,0.2-0.6,0.3-1,0.3l0,0c-0.3,0-0.5-0.1-0.8-0.2l0,0
		c-0.4-0.2-0.7-0.5-0.8-0.9c0-0.2-0.1-0.3-0.1-0.5c0-0.1,0-0.2,0-0.3c0,0.1,0,0.2,0,0.3V3c0-0.3,0.2-0.6,0.4-0.8l0,0L14.6,2l0,0
		c0.1-0.1,0.2-0.2,0.3-0.3c0.3-0.2,0.8-0.3,1.2-0.2h0c0.3,0.1,0.7,0.3,0.9,0.6l0,0C17.3,2.4,17.4,2.7,17.3,3.2L17.3,3.2
		C17.3,3.2,17.3,3.2,17.3,3.2z"/>
	<path class="st2" d="M9.8,4.6"/>
	<path class="st3" d="M10.7,4.3L10.7,4.3l-6.2,6.2l0,0c-0.6,0.6-1.7,0.6-2.3,0c-0.6-0.6-0.6-1.7,0-2.3l0,0l6.2-6.2l0,0l0,0
		c0.1-0.1,0.2-0.1,0.3-0.2c0,0,0,0,0.1,0l0,0c0,0,0,0,0.1,0l0,0c0,0,0,0,0,0l0,0c0,0,0,0,0.1,0c0,0,0,0,0.1,0c0.1,0,0.1,0,0.2,0
		c0,0,0,0,0.1,0s0.1,0,0.2,0c0,0,0.1,0,0.2,0l0,0c0.1,0,0.2,0,0.3,0c0,0,0,0,0.1,0s0,0,0.1,0c0,0,0,0,0.1,0c0,0,0,0,0,0
		c0.1,0,0.2,0.1,0.2,0.1c0,0,0,0,0.1,0c0,0,0.1,0,0.1,0.1l0,0l0,0l0,0l0,0l0,0l0,0l0,0l0,0l0,0c0,0,0,0,0,0.1
		C11,2.5,11.1,2.7,11.1,3l0,0c0,0,0,0,0,0C11.1,3.6,11,4,10.7,4.3z"/>
	<path class="st3" d="M16.9,4.3L16.9,4.3l-2.8,2.8L11.1,10l-0.5,0.5l0,0c-0.6,0.6-1.7,0.6-2.3,0c-0.3-0.3-0.5-0.8-0.5-1.2
		s0.2-0.8,0.5-1.2l0,0l2.8-2.8l3.4-3.4l0,0l0,0c0,0,0,0,0,0l0,0c0,0,0,0,0.1,0l0,0l0,0c0,0,0,0,0.1,0c0,0,0,0,0.1,0c0,0,0,0,0.1,0
		c0,0,0,0,0.1,0c0,0,0,0,0.1,0c0,0,0,0,0.1,0c0.1,0,0.1,0,0.2,0c0,0,0,0,0.1,0c0,0,0.1,0,0.2,0c0,0,0.1,0,0.2,0l0,0
		c0.1,0,0.2,0,0.3,0c0,0,0,0,0.1,0h0c0,0,0,0,0.1,0c0,0,0,0,0,0c0,0,0.1,0,0.1,0c0,0,0.1,0,0.1,0.1c0,0,0,0,0,0c0,0,0,0,0.1,0
		c0,0,0.1,0,0.1,0.1l0,0l0,0l0,0l0,0l0,0l0,0l0,0l0,0l0,0c0.1,0.2,0.2,0.4,0.3,0.6c0,0.1,0,0.2,0,0.3l0,0c0,0,0,0,0,0
		C17.3,3.6,17.2,4,16.9,4.3z"/>
	<path class="st3" d="M19.1,8.3L19.1,8.3l-2.2,2.2l0,0c-0.2,0.2-0.3,0.3-0.5,0.4c-0.6,0.3-1.3,0.1-1.8-0.4C14.2,10.2,14,9.8,14,9.4
		c0-0.2,0-0.4,0.1-0.6c0.1-0.2,0.2-0.4,0.4-0.5l0,0L16.7,6l0,0c0.2-0.2,0.4-0.3,0.6-0.4c0.6-0.2,1.2,0,1.7,0.4
		C19.6,6.7,19.7,7.7,19.1,8.3z"/>
</g>
</svg>
