<?xml version="1.0" encoding="utf-8"?>
<!-- Generator: Adobe Illustrator 27.0.0, SVG Export Plug-In . SVG Version: 6.00 Build 0)  -->
<svg version="1.1" id="Layer_1" xmlns="http://www.w3.org/2000/svg" xmlns:xlink="http://www.w3.org/1999/xlink" x="0px" y="0px"
	 viewBox="0 0 32 16" style="enable-background:new 0 0 32 16;" xml:space="preserve">
<style type="text/css">
	.st0{fill:#F16241;}
	.st1{fill:#F9FAFB;}
</style>
<g>
	<path class="st0" d="M16.7,3.2V13c0,0.6-0.2,1.1-0.5,1.5l-0.6,0.6c-0.5,0.3-1,0.5-1.5,0.5l0,0c-0.4,0-0.9-0.1-1.2-0.3l0,0
		c-0.6-0.3-1-0.9-1.3-1.5c-0.1-0.3-0.2-0.6-0.2-0.9c0-0.2,0-0.3,0.1-0.5c-0.1,0.2-0.1,0.3-0.1,0.5V2.9c0.1-0.5,0.3-1,0.6-1.4l0,0
		l0.3-0.3l0,0c0.2-0.2,0.3-0.3,0.5-0.3c0.6-0.3,1.2-0.4,1.8-0.3h0.1c0.6,0.1,1.1,0.5,1.4,0.9l0,0c0.3,0.5,0.5,0.9,0.6,1.5l0,0
		C16.7,3.2,16.7,3.2,16.7,3.2z"/>
	<path class="st0" d="M26.5,3.2V13c0,0.6-0.2,1.1-0.5,1.5l-0.6,0.6c-0.4,0.3-1,0.5-1.5,0.5l0,0c-0.4,0-0.9-0.1-1.2-0.3l0,0
		c-0.6-0.3-1-0.9-1.3-1.5c-0.1-0.3-0.2-0.6-0.2-0.9c0-0.2,0-0.3,0.1-0.5c-0.1,0.2-0.1,0.3-0.1,0.5V2.9c0.1-0.5,0.3-1,0.6-1.4l0,0
		l0.3-0.3l0,0c0.2-0.2,0.3-0.3,0.5-0.3c0.6-0.3,1.2-0.4,1.8-0.3h0.1c0.6,0.1,1.1,0.5,1.4,0.9l0,0c0.3,0.5,0.5,0.9,0.6,1.5l0,0
		C26.5,3.2,26.5,3.2,26.5,3.2z"/>
	<path class="st1" d="M16,5L16,5l-9.9,9.9l0,0c-1,1-2.7,1-3.7,0s-1-2.7,0-3.7l0,0l9.9-9.9l0,0l0,0c0.1-0.1,0.3-0.2,0.4-0.3
		c0.1,0,0.1-0.1,0.1-0.1l0,0c0.1,0,0.1-0.1,0.1-0.1l0,0C13,0.9,13,0.8,13,0.8l0,0c0.1,0,0.1-0.1,0.1-0.1c0.1,0,0.1,0,0.1-0.1
		c0.1-0.1,0.2-0.1,0.3-0.1c0.1,0,0.1,0,0.1,0c0.1,0,0.2,0,0.2,0c0.1,0,0.2,0,0.2,0l0,0c0.2,0,0.3,0.1,0.5,0.1c0.1,0,0.1,0,0.1,0.1
		c0.1,0,0.1,0,0.1,0.1C15,0.8,15,0.8,15,0.8c0.1,0,0.1,0,0.1,0.1c0.1,0.1,0.2,0.1,0.3,0.2c0.1,0,0.1,0.1,0.1,0.1
		c0.1,0.1,0.1,0.1,0.2,0.2l0.1,0.1c0,0,0,0,0.1,0.1l0.1,0.1c0,0,0,0,0.1,0.1l0.1,0.1l0,0l0.1,0.1l0,0c0,0.1,0.1,0.1,0.1,0.1
		c0,0.1,0.1,0.1,0.1,0.1c0.2,0.4,0.4,0.9,0.4,1.3l0,0c0,0.1,0,0.1,0,0.1C16.7,3.9,16.4,4.5,16,5z"/>
	<path class="st1" d="M25.8,5L25.8,5l-4.6,4.6l-4.6,4.6l-0.7,0.7l0,0c-1,1-2.7,1-3.7,0c-0.5-0.5-0.7-1.2-0.7-1.8
		c0-0.6,0.2-1.3,0.7-1.8l0,0l4.4-4.4L22,1.4l0,0l0,0c0,0,0,0,0.1-0.1l0,0c0.1-0.1,0.1-0.1,0.1-0.1l0.1-0.1l0.1-0.1
		c0.1,0,0.1-0.1,0.1-0.1c0.1,0,0.1-0.1,0.1-0.1c0.1,0,0.1-0.1,0.1-0.1c0.1,0,0.1-0.1,0.1-0.1c0.1,0,0.1-0.1,0.1-0.1
		c0.1,0,0.1,0,0.1-0.1c0.1-0.1,0.2-0.1,0.3-0.1c0.1,0,0.1,0,0.1,0c0.1,0,0.2,0,0.2,0c0.1,0,0.2,0,0.2,0l0,0c0.2,0,0.3,0.1,0.5,0.1
		c0.1,0,0.1,0,0.1,0.1c0.1,0,0.1,0,0.1,0.1c0.1,0,0.1,0.1,0.2,0.1c0,0,0.1,0,0.1,0.1C24.9,0.9,25,1,25.1,1c0.1-0.1,0.2-0.1,0.2,0
		c0,0,0,0,0.1,0s0.1,0.1,0.1,0.1c0.1,0.1,0.1,0.1,0.2,0.2l0.1,0.1c0,0,0,0,0.1,0.1l0.1,0.1c0,0,0,0,0.1,0.1l0.1,0.1l0,0L26,1.6l0,0
		C26,1.6,26,1.6,26,1.7c0.2,0.3,0.3,0.6,0.4,0.9c0.1,0.2,0.1,0.3,0.1,0.5l0,0c0,0.1,0,0.1,0,0.1C26.5,3.9,26.3,4.5,25.8,5z"/>
	<path class="st1" d="M29.2,11.4L29.2,11.4l-3.5,3.5l0,0c-0.2,0.2-0.6,0.5-0.9,0.6c-1,0.4-2.1,0.2-2.9-0.6c-0.5-0.5-0.7-1.2-0.7-1.8
		c0-0.3,0.1-0.7,0.2-1c0.1-0.3,0.3-0.6,0.6-0.9l0,0l3.5-3.5l0,0c0.3-0.3,0.6-0.5,1-0.6c0.9-0.3,1.9-0.1,2.7,0.6
		C30.1,8.8,30.2,10.4,29.2,11.4z"/>
</g>
</svg>
