<?xml version="1.0" encoding="utf-8"?>
<!-- Generator: Adobe Illustrator 27.0.0, SVG Export Plug-In . SVG Version: 6.00 Build 0)  -->
<svg version="1.1" id="Layer_1" xmlns="http://www.w3.org/2000/svg" xmlns:xlink="http://www.w3.org/1999/xlink" x="0px" y="0px"
	 viewBox="0 0 595.7 105" style="enable-background:new 0 0 595.7 105;" xml:space="preserve">
<style type="text/css">
	.st0{fill:#FF6D5A;}
	.st1{fill:#384D5B;}
	.st2{fill:#F16241;}
	.st3{opacity:0.6;fill:#121110;}
	.st4{fill:#0F1212;}
	.st5{fill:#121110;}
</style>
<g>
	<path class="st2" d="M76.4,33.8v43.6c0,2.6-0.8,4.9-2.2,6.9l-2.5,2.5c-1.9,1.4-4.3,2.2-6.9,2.2h-0.1c-1.9,0-3.7-0.5-5.3-1.3
		c0,0,0,0,0,0c-2.5-1.4-4.6-3.8-5.6-6.5c-0.4-1.2-0.7-2.5-0.7-3.8c0-0.8,0.1-1.6,0.2-2.3c-0.2,0.8-0.3,1.6-0.3,2.4v-45
		c0.2-2.3,1.1-4.3,2.5-6c0,0,0,0,0,0l1.2-1.2c0,0,0,0,0,0c0.7-0.6,1.4-1.2,2.2-1.6c2.5-1.4,5.4-1.8,8.2-1.2c0.1,0,0.2,0,0.2,0.1
		c2.5,0.6,4.8,2,6.4,4.1c0,0,0,0,0,0c1.5,1.9,2.3,4.2,2.4,6.7h0C76.3,33.6,76.4,33.7,76.4,33.8z"/>
	<path class="st2" d="M120.1,33.8v43.6c0,2.6-0.8,4.9-2.2,6.9l-2.5,2.5c-1.9,1.4-4.3,2.2-6.9,2.2h-0.1c-1.9,0-3.7-0.5-5.3-1.3
		c0,0,0,0,0,0c-2.5-1.4-4.6-3.8-5.6-6.5c-0.4-1.2-0.7-2.5-0.7-3.8c0-0.8,0.1-1.6,0.2-2.3c-0.2,0.8-0.3,1.6-0.3,2.4v-45
		c0.2-2.3,1.1-4.3,2.5-6c0,0,0,0,0,0l1.2-1.2c0,0,0,0,0,0c0.7-0.6,1.4-1.2,2.2-1.6c2.5-1.4,5.4-1.8,8.2-1.2c0.1,0,0.2,0,0.2,0.1
		c2.5,0.6,4.8,2,6.4,4.1c0,0,0,0,0,0c1.5,1.9,2.3,4.2,2.4,6.7h0C120.1,33.6,120.1,33.7,120.1,33.8z"/>
	<path class="st4" d="M73.3,41.6L73.3,41.6L29.2,85.7h0c-4.5,4.5-11.9,4.5-16.5,0c-4.5-4.5-4.5-11.9,0-16.5l0,0l44.1-44.1l0,0l0,0
		c0.6-0.5,1.2-1,1.8-1.4c0.2-0.1,0.3-0.2,0.5-0.3c0,0,0,0,0,0c0.2-0.1,0.3-0.2,0.5-0.3c0,0,0,0,0,0c0.1-0.1,0.3-0.1,0.4-0.2
		c0,0,0.1,0,0.1,0c0.2-0.1,0.3-0.1,0.5-0.2c0.2-0.1,0.3-0.1,0.5-0.2c0.5-0.2,1-0.3,1.6-0.4c0.2,0,0.4-0.1,0.5-0.1
		c0.4,0,0.7-0.1,1.1-0.1c0.4,0,0.7,0,1.1,0h0c0.7,0,1.5,0.1,2.2,0.3c0.2,0,0.4,0.1,0.5,0.1c0.2,0,0.3,0.1,0.5,0.1
		c0.2,0.1,0.4,0.1,0.6,0.2c0.1,0.1,0.3,0.1,0.4,0.2c0.6,0.2,1.1,0.5,1.6,0.9c0.2,0.1,0.3,0.2,0.5,0.3c0.3,0.2,0.6,0.4,0.8,0.7
		c0.1,0.1,0.2,0.2,0.3,0.3c0,0,0.1,0.1,0.1,0.1c0.1,0.1,0.2,0.2,0.2,0.2c0,0,0.1,0.1,0.1,0.1c0.1,0.1,0.2,0.2,0.3,0.3
		c0,0,0.1,0.1,0.1,0.1c0.1,0.1,0.2,0.2,0.3,0.4c0,0,0,0,0,0c0.1,0.1,0.2,0.3,0.3,0.4c0.1,0.2,0.2,0.3,0.3,0.5
		c1.1,1.7,1.7,3.7,1.8,5.8h0c0,0.1,0,0.3,0,0.4C76.4,36.5,75.3,39.4,73.3,41.6z"/>
	<path class="st4" d="M117,41.6L117,41.6L96.8,61.8L76.4,82.3L73,85.7h0c-4.5,4.5-11.9,4.5-16.5,0c-2.3-2.3-3.4-5.3-3.4-8.2
		c0-3,1.1-6,3.4-8.2l0,0l19.9-19.9l24.2-24.2l0,0l0,0c0.1,0,0.1-0.1,0.2-0.1c0,0,0,0,0,0c0.2-0.1,0.3-0.3,0.5-0.4
		c0.1-0.1,0.2-0.2,0.3-0.3c0.1-0.1,0.2-0.2,0.3-0.2c0.2-0.1,0.3-0.2,0.5-0.3c0.2-0.1,0.3-0.2,0.5-0.3c0.2-0.1,0.3-0.2,0.5-0.3
		c0.2-0.1,0.3-0.2,0.5-0.2c0.2-0.1,0.3-0.1,0.5-0.2c0.2-0.1,0.3-0.1,0.5-0.2c0.5-0.2,1-0.3,1.6-0.4c0.2,0,0.4-0.1,0.5-0.1
		c0.4,0,0.7-0.1,1.1-0.1c0.4,0,0.7,0,1.1,0h0c0.7,0,1.5,0.1,2.2,0.3c0.2,0,0.4,0.1,0.5,0.1c0.1,0,0.3,0.1,0.4,0.1
		c0.2,0.1,0.4,0.1,0.6,0.2c0.1,0,0.2,0.1,0.4,0.2c0.2,0.1,0.5,0.2,0.7,0.3c0.3,0.1,0.5,0.3,0.8,0.5c0.1,0,0.1,0.1,0.2,0.1
		c0.2,0.1,0.3,0.2,0.5,0.3c0.3,0.2,0.6,0.4,0.8,0.7c0.1,0.1,0.2,0.2,0.3,0.3c0,0,0.1,0.1,0.1,0.1c0.1,0.1,0.2,0.2,0.2,0.2
		c0,0,0.1,0.1,0.1,0.1c0.1,0.1,0.2,0.2,0.3,0.3c0,0,0.1,0.1,0.1,0.1c0.1,0.1,0.2,0.2,0.3,0.4c0,0,0,0,0,0c0.1,0.1,0.2,0.3,0.3,0.4
		c0.8,1.2,1.5,2.6,1.8,4c0.2,0.7,0.3,1.5,0.3,2.3h0c0,0.1,0,0.3,0,0.4C120.1,36.5,119.1,39.4,117,41.6z"/>
	<path class="st4" d="M132.3,70.1L132.3,70.1l-15.6,15.6h0c-1.1,1.1-2.4,2-3.8,2.5c-4.2,1.7-9.2,0.9-12.6-2.5
		c-2.3-2.3-3.4-5.3-3.4-8.2c0-1.5,0.3-3,0.9-4.4c0.6-1.4,1.4-2.7,2.5-3.8l0,0l15.6-15.6l0,0c1.3-1.2,2.7-2,4.3-2.5
		c4-1.3,8.6-0.4,11.9,2.8C136.4,58.4,136.5,65.5,132.3,70.1z"/>
	<g>
		<path class="st5" d="M162.8,30h11.3v3.2c3.8-2.2,7.7-3.4,12.3-3.4c7,0,13.5,2.7,18,8.1c5-5.3,10.5-8.1,18-8.1
			c12.5,0,23.6,9.8,23.6,22.8v28.6h-11.2V52.7c0-7-5.5-12.8-12.4-12.8c-6.8,0-12.3,5.8-12.3,12.8v28.6h-11.3V52.7
			c0-7-5.4-12.8-12.4-12.8c-6.9,0-12.3,5.8-12.3,12.8v28.6h-11.3V30z"/>
		<path class="st5" d="M293.9,76.4c-4.5,3.1-9.7,4.6-15.1,4.6c-14,0-26.6-11-26.6-25.5s12.6-25.6,26.6-25.6c5.4,0,10.7,1.6,15.1,4.7
			v-7.3h11.3v53.8h-11.3V76.4z M278.8,71c8.2,0,15.1-7,15.1-15.5c0-8.6-6.8-15.6-15.1-15.6c-8.4,0-15.3,6.9-15.3,15.6
			C263.5,64.2,270.3,71,278.8,71z"/>
		<path class="st5" d="M364,71.4c-2.6,0-4.6-2.5-4.6-5.1V39.9h-11.2v26.4c0,1.9,0.6,3.8,1.3,5.6c2.6,6.1,7.9,9.5,14.5,9.5h4.6v-10
			H364z"/>
		<rect x="348.2" y="22.8" class="st5" width="11.2" height="7.5"/>
		<path class="st5" d="M424.1,65.8c-4.7,9.5-14.3,15.5-24.4,15.5c-13.9,0-26.5-11.1-26.5-25.5c0-14.7,12.6-25.6,26.5-25.6
			c14,0,26.4,10.9,26.4,25.6v5h-40.8c2.4,6.2,7.5,10.6,14.4,10.6c4.4,0,8.7-2.1,11.9-5.4H424.1z M414.1,50.5
			c-2.5-6.1-7.6-10.5-14.4-10.5c-6.9,0-12,4.5-14.3,10.5H414.1z"/>
		<path class="st5" d="M484.5,61.3c-3.8,12.5-14.9,20.7-26.5,20.7c-14.2,0-27-11.4-27-26.2c0-14.9,12.8-26.1,27-26.1
			c11.6,0,22.7,8.2,26.5,20.7h-11.7c-2.7-6.4-8.5-10.6-14.8-10.6c-8.6,0-15.7,7.1-15.7,16.1c0,8.8,7,16.1,15.7,16.1
			c6.3,0,12.1-4.1,14.8-10.6H484.5z"/>
		<path class="st5" d="M493.1,13.8h11.3v19.8c3.8-2.3,7.4-3.5,12.3-3.5c12.5,0,23.7,9.8,23.7,22.8v28.3h-11.3V52.9
			c0-7.1-5.4-12.8-12.4-12.8c-6.9,0-12.3,5.8-12.3,12.8v28.3h-11.3V13.8z"/>
		<path class="st5" d="M586.6,67c0,9.4-9.1,15.3-19.1,15.5c-9.1,0.2-18.8-4.6-20.3-17.6H558c1,6.3,4.8,7.5,8.7,7.5
			c4.8,0,8.7-1.9,8.7-5.4c0-4.8-6.8-5.2-13.4-6.9c-4.9-1.2-14.9-4.4-14.9-14.4c0-9.8,9.6-15.5,19.6-15.5c9.8,0,19.1,5.4,20.3,17.2
			l-11.3,0.2c0-0.8-0.1-4.4-2.7-6.6c-3.7-3.2-10.4-2.1-12.4,1.4c-0.2,0.3-1.3,2.3-0.5,4.3c1.4,3.6,6.7,4.1,12.9,5.5
			C580.1,53.9,586.6,59,586.6,67z"/>
		<path class="st2" d="M370.7,30.2v11.3h-9.8c-0.1,0-0.2,0-0.3,0l-16,0l-7.9,0c-5.7,0-10.3,4.4-10.3,9.9l0.1,29.9l-11.9,0l-0.1-29.9
			c0-11.7,9.9-21.2,22.2-21.2h8l15.9,0H370.7z"/>
	</g>
</g>
</svg>
