<?xml version="1.0" encoding="utf-8"?>
<!-- Generator: Adobe Illustrator 27.0.0, SVG Export Plug-In . SVG Version: 6.00 Build 0)  -->
<svg version="1.1" id="Layer_1" xmlns="http://www.w3.org/2000/svg" xmlns:xlink="http://www.w3.org/1999/xlink" x="0px" y="0px"
	 viewBox="0 0 32 16" style="enable-background:new 0 0 32 16;" xml:space="preserve">
<style type="text/css">
	.st0{fill:#F16241;}
	.st1{opacity:0.6;fill:#121110;}
	.st2{fill:#0F1212;}
</style>
<g>
	<path class="st0" d="M16.2,4v8c0,0.5-0.2,0.9-0.4,1.3l-0.5,0.5c-0.4,0.3-0.8,0.4-1.3,0.4h0c-0.3,0-0.7-0.1-1-0.2c0,0,0,0,0,0
		c-0.5-0.3-0.8-0.7-1-1.2c-0.1-0.2-0.1-0.5-0.1-0.7c0-0.1,0-0.3,0-0.4c0,0.1,0,0.3,0,0.4V3.8c0-0.4,0.2-0.8,0.5-1.1c0,0,0,0,0,0
		l0.2-0.2c0,0,0,0,0,0c0.1-0.1,0.3-0.2,0.4-0.3c0.5-0.3,1-0.3,1.5-0.2c0,0,0,0,0,0c0.5,0.1,0.9,0.4,1.2,0.8c0,0,0,0,0,0
		C16,3.1,16.2,3.5,16.2,4L16.2,4C16.2,4,16.2,4,16.2,4z"/>
	<path class="st0" d="M24.3,4v8c0,0.5-0.2,0.9-0.4,1.3l-0.5,0.5c-0.4,0.3-0.8,0.4-1.3,0.4h0c-0.3,0-0.7-0.1-1-0.2c0,0,0,0,0,0
		c-0.5-0.3-0.8-0.7-1-1.2c-0.1-0.2-0.1-0.5-0.1-0.7c0-0.1,0-0.3,0-0.4c0,0.1,0,0.3,0,0.4V3.8c0-0.4,0.2-0.8,0.5-1.1c0,0,0,0,0,0
		l0.2-0.2c0,0,0,0,0,0c0.1-0.1,0.3-0.2,0.4-0.3c0.5-0.3,1-0.3,1.5-0.2c0,0,0,0,0,0c0.5,0.1,0.9,0.4,1.2,0.8c0,0,0,0,0,0
		C24.1,3.1,24.3,3.5,24.3,4L24.3,4C24.3,4,24.3,4,24.3,4z"/>
	<path class="st1" d="M14.5,5.8"/>
	<path class="st2" d="M15.7,5.4L15.7,5.4l-8.1,8.1h0c-0.8,0.8-2.2,0.8-3,0c-0.8-0.8-0.8-2.2,0-3l0,0l8.1-8.1l0,0l0,0
		c0.1-0.1,0.2-0.2,0.3-0.3c0,0,0.1,0,0.1-0.1c0,0,0,0,0,0c0,0,0.1,0,0.1,0c0,0,0,0,0,0c0,0,0.1,0,0.1,0c0,0,0,0,0,0c0,0,0.1,0,0.1,0
		c0,0,0.1,0,0.1,0c0.1,0,0.2-0.1,0.3-0.1c0,0,0.1,0,0.1,0c0.1,0,0.1,0,0.2,0c0.1,0,0.1,0,0.2,0h0c0.1,0,0.3,0,0.4,0.1
		c0,0,0.1,0,0.1,0c0,0,0.1,0,0.1,0c0,0,0.1,0,0.1,0c0,0,0,0,0.1,0c0.1,0,0.2,0.1,0.3,0.2c0,0,0.1,0,0.1,0.1c0.1,0,0.1,0.1,0.2,0.1
		c0,0,0,0,0.1,0c0,0,0,0,0,0c0,0,0,0,0,0c0,0,0,0,0,0c0,0,0,0,0,0.1c0,0,0,0,0,0c0,0,0,0,0.1,0.1c0,0,0,0,0,0c0,0,0,0.1,0.1,0.1
		c0,0,0,0.1,0.1,0.1c0.2,0.3,0.3,0.7,0.3,1.1h0c0,0,0,0.1,0,0.1C16.2,4.5,16,5,15.7,5.4z"/>
	<path class="st2" d="M23.7,5.4L23.7,5.4L20,9.2l-3.8,3.8l-0.6,0.6h0c-0.8,0.8-2.2,0.8-3,0c-0.4-0.4-0.6-1-0.6-1.5
		c0-0.5,0.2-1.1,0.6-1.5l0,0l3.7-3.7l4.5-4.5l0,0l0,0c0,0,0,0,0,0c0,0,0,0,0,0c0,0,0.1-0.1,0.1-0.1c0,0,0,0,0.1,0c0,0,0,0,0.1,0
		c0,0,0.1,0,0.1-0.1c0,0,0.1,0,0.1-0.1c0,0,0.1,0,0.1,0c0,0,0.1,0,0.1,0c0,0,0.1,0,0.1,0c0,0,0.1,0,0.1,0c0.1,0,0.2-0.1,0.3-0.1
		c0,0,0.1,0,0.1,0c0.1,0,0.1,0,0.2,0c0.1,0,0.1,0,0.2,0h0c0.1,0,0.3,0,0.4,0.1c0,0,0.1,0,0.1,0c0,0,0.1,0,0.1,0c0,0,0.1,0,0.1,0
		c0,0,0,0,0.1,0c0,0,0.1,0,0.1,0.1c0.1,0,0.1,0.1,0.1,0.1c0,0,0,0,0,0c0,0,0.1,0,0.1,0.1c0.1,0,0.1,0.1,0.2,0.1c0,0,0,0,0.1,0
		c0,0,0,0,0,0c0,0,0,0,0,0c0,0,0,0,0,0c0,0,0,0,0,0.1c0,0,0,0,0,0c0,0,0,0,0.1,0.1c0,0,0,0,0,0c0,0,0,0.1,0.1,0.1
		c0.2,0.2,0.3,0.5,0.3,0.7c0,0.1,0.1,0.3,0.1,0.4h0c0,0,0,0.1,0,0.1C24.3,4.5,24.1,5,23.7,5.4z"/>
	<path class="st2" d="M26.5,10.7L26.5,10.7l-2.9,2.9h0c-0.2,0.2-0.4,0.4-0.7,0.5c-0.8,0.3-1.7,0.2-2.3-0.5c-0.4-0.4-0.6-1-0.6-1.5
		c0-0.3,0.1-0.6,0.2-0.8c0.1-0.3,0.3-0.5,0.5-0.7l0,0l2.9-2.9l0,0c0.2-0.2,0.5-0.4,0.8-0.5C25,7,25.9,7.1,26.5,7.7
		C27.3,8.5,27.3,9.9,26.5,10.7z"/>
</g>
</svg>
