<?xml version="1.0" encoding="utf-8"?>
<!-- Generator: Adobe Illustrator 27.0.0, SVG Export Plug-In . SVG Version: 6.00 Build 0)  -->
<svg version="1.1" id="Layer_1" xmlns="http://www.w3.org/2000/svg" xmlns:xlink="http://www.w3.org/1999/xlink" x="0px" y="0px"
	 viewBox="0 0 100.1 16" style="enable-background:new 0 0 100.1 16;" xml:space="preserve">
<style type="text/css">
	.st0{fill:#F9FAFB;}
	.st1{fill:#F16241;}
</style>
<g>
	<g>
		<g>
			<path class="st0" d="M27.4,4.1h1.9v0.5c0.6-0.4,1.3-0.6,2-0.6c1.2,0,2.3,0.5,3,1.3c0.8-0.9,1.8-1.3,3-1.3c2.1,0,3.9,1.6,3.9,3.8
				v4.8h-1.9V7.9c0-1.2-0.9-2.1-2.1-2.1c-1.1,0-2.1,1-2.1,2.1v4.8h-1.9V7.9c0-1.2-0.9-2.1-2.1-2.1c-1.1,0-2,1-2,2.1v4.8h-1.9V4.1z"
				/>
			<path class="st0" d="M49.3,11.8c-0.7,0.5-1.6,0.8-2.5,0.8c-2.3,0-4.4-1.8-4.4-4.3s2.1-4.3,4.4-4.3c0.9,0,1.8,0.3,2.5,0.8V3.6h1.9
				v9h-1.9V11.8z M46.8,10.9c1.4,0,2.5-1.2,2.5-2.6c0-1.4-1.1-2.6-2.5-2.6c-1.4,0-2.6,1.1-2.6,2.6C44.2,9.8,45.4,10.9,46.8,10.9z"/>
			<path class="st0" d="M61,11c-0.4,0-0.8-0.4-0.8-0.8V5.7h-1.9v4.4c0,0.3,0.1,0.6,0.2,0.9c0.4,1,1.3,1.6,2.4,1.6h0.8V11H61z"/>
			<rect x="58.3" y="2.9" class="st0" width="1.9" height="1.2"/>
			<path class="st0" d="M71,10c-0.8,1.6-2.4,2.6-4.1,2.6c-2.3,0-4.4-1.8-4.4-4.3c0-2.4,2.1-4.3,4.4-4.3c2.3,0,4.4,1.8,4.4,4.3v0.8
				h-6.8c0.4,1,1.3,1.8,2.4,1.8c0.7,0,1.5-0.3,2-0.9H71z M69.3,7.5c-0.4-1-1.3-1.8-2.4-1.8c-1.1,0-2,0.7-2.4,1.8H69.3z"/>
			<path class="st0" d="M81.1,9.3c-0.6,2.1-2.5,3.4-4.4,3.4c-2.4,0-4.5-1.9-4.5-4.4c0-2.5,2.1-4.4,4.5-4.4c1.9,0,3.8,1.4,4.4,3.4h-2
				c-0.5-1.1-1.4-1.8-2.5-1.8c-1.4,0-2.6,1.2-2.6,2.7c0,1.5,1.2,2.7,2.6,2.7c1.1,0,2-0.7,2.5-1.8H81.1z"/>
			<path class="st0" d="M82.5,1.4h1.9v3.3c0.6-0.4,1.2-0.6,2-0.6c2.1,0,4,1.6,4,3.8v4.7h-1.9V7.9c0-1.2-0.9-2.1-2.1-2.1
				c-1.1,0-2,1-2,2.1v4.7h-1.9V1.4z"/>
			<path class="st0" d="M98.1,10.3c0,1.6-1.5,2.6-3.2,2.6c-1.5,0-3.1-0.8-3.4-2.9h1.8c0.2,1,0.8,1.3,1.5,1.3c0.8,0,1.5-0.3,1.5-0.9
				c0-0.8-1.1-0.9-2.2-1.2c-0.8-0.2-2.5-0.7-2.5-2.4c0-1.6,1.6-2.6,3.3-2.6C96.5,4.1,98,5,98.2,7l-1.9,0c0-0.1,0-0.7-0.5-1.1
				c-0.6-0.5-1.7-0.4-2.1,0.2c0,0-0.2,0.4-0.1,0.7c0.2,0.6,1.1,0.7,2.2,0.9C97.1,8.1,98.1,8.9,98.1,10.3z"/>
			<path class="st1" d="M62.1,4.1V6h-1.6c0,0,0,0-0.1,0l-2.7,0l-1.3,0c-0.9,0-1.7,0.7-1.7,1.6l0,5l-2,0l0-5c0-1.9,1.7-3.5,3.7-3.5
				h1.3l2.7,0H62.1z"/>
			<line class="st0" x1="60.5" y1="6" x2="59.4" y2="6"/>
		</g>
	</g>
	<path class="st1" d="M13,4.6v7.3c0,0.4-0.1,0.8-0.4,1.1l-0.4,0.4c-0.3,0.2-0.7,0.4-1.1,0.4h0c-0.3,0-0.6-0.1-0.9-0.2c0,0,0,0,0,0
		c-0.4-0.2-0.8-0.6-0.9-1.1c-0.1-0.2-0.1-0.4-0.1-0.6c0-0.1,0-0.3,0-0.4c0,0.1,0,0.3,0,0.4V4.4c0-0.4,0.2-0.7,0.4-1c0,0,0,0,0,0
		l0.2-0.2c0,0,0,0,0,0C9.8,3.1,10,3,10.1,2.9c0.4-0.2,0.9-0.3,1.4-0.2c0,0,0,0,0,0c0.4,0.1,0.8,0.3,1.1,0.7c0,0,0,0,0,0
		C12.8,3.8,13,4.1,13,4.6L13,4.6C13,4.6,13,4.6,13,4.6z"/>
	<path class="st1" d="M20.3,4.6v7.3c0,0.4-0.1,0.8-0.4,1.1l-0.4,0.4c-0.3,0.2-0.7,0.4-1.1,0.4h0c-0.3,0-0.6-0.1-0.9-0.2c0,0,0,0,0,0
		c-0.4-0.2-0.8-0.6-0.9-1.1c-0.1-0.2-0.1-0.4-0.1-0.6c0-0.1,0-0.3,0-0.4c0,0.1,0,0.3,0,0.4V4.4c0-0.4,0.2-0.7,0.4-1c0,0,0,0,0,0
		L17,3.2c0,0,0,0,0,0c0.1-0.1,0.2-0.2,0.4-0.3c0.4-0.2,0.9-0.3,1.4-0.2c0,0,0,0,0,0c0.4,0.1,0.8,0.3,1.1,0.7c0,0,0,0,0,0
		C20.1,3.8,20.3,4.1,20.3,4.6L20.3,4.6C20.3,4.6,20.3,4.6,20.3,4.6z"/>
	<path class="st0" d="M12.5,5.9L12.5,5.9l-7.4,7.4h0c-0.8,0.8-2,0.8-2.7,0c-0.8-0.8-0.8-2,0-2.7l0,0l7.4-7.4l0,0l0,0
		C9.8,3.1,9.9,3,10,3c0,0,0.1,0,0.1,0c0,0,0,0,0,0c0,0,0.1,0,0.1,0c0,0,0,0,0,0c0,0,0,0,0.1,0c0,0,0,0,0,0c0,0,0.1,0,0.1,0
		c0,0,0.1,0,0.1,0c0.1,0,0.2-0.1,0.3-0.1c0,0,0.1,0,0.1,0c0.1,0,0.1,0,0.2,0c0.1,0,0.1,0,0.2,0h0c0.1,0,0.2,0,0.4,0.1
		c0,0,0.1,0,0.1,0c0,0,0.1,0,0.1,0c0,0,0.1,0,0.1,0c0,0,0,0,0.1,0c0.1,0,0.2,0.1,0.3,0.1c0,0,0.1,0,0.1,0.1c0,0,0.1,0.1,0.1,0.1
		c0,0,0,0,0,0c0,0,0,0,0,0c0,0,0,0,0,0c0,0,0,0,0,0c0,0,0,0,0,0c0,0,0,0,0,0c0,0,0,0,0,0.1c0,0,0,0,0,0c0,0,0,0,0.1,0.1
		c0,0,0,0.1,0.1,0.1c0.2,0.3,0.3,0.6,0.3,1h0c0,0,0,0,0,0.1C13,5.1,12.8,5.6,12.5,5.9z"/>
	<path class="st0" d="M19.8,5.9L19.8,5.9l-3.4,3.4L13,12.7l-0.6,0.6h0c-0.8,0.8-2,0.8-2.7,0c-0.4-0.4-0.6-0.9-0.6-1.4s0.2-1,0.6-1.4
		l0,0L13,7.2l4-4l0,0l0,0c0,0,0,0,0,0c0,0,0,0,0,0c0,0,0.1,0,0.1-0.1c0,0,0,0,0.1,0c0,0,0,0,0.1,0c0,0,0.1,0,0.1-0.1
		c0,0,0.1,0,0.1,0c0,0,0.1,0,0.1,0c0,0,0.1,0,0.1,0c0,0,0.1,0,0.1,0c0,0,0.1,0,0.1,0c0.1,0,0.2-0.1,0.3-0.1c0,0,0.1,0,0.1,0
		c0.1,0,0.1,0,0.2,0c0.1,0,0.1,0,0.2,0h0c0.1,0,0.2,0,0.4,0.1c0,0,0.1,0,0.1,0c0,0,0,0,0.1,0c0,0,0.1,0,0.1,0c0,0,0,0,0.1,0
		c0,0,0.1,0,0.1,0.1c0,0,0.1,0.1,0.1,0.1c0,0,0,0,0,0c0,0,0.1,0,0.1,0.1c0,0,0.1,0.1,0.1,0.1c0,0,0,0,0,0c0,0,0,0,0,0c0,0,0,0,0,0
		c0,0,0,0,0,0c0,0,0,0,0,0c0,0,0,0,0,0c0,0,0,0,0,0.1c0,0,0,0,0,0c0,0,0,0,0.1,0.1c0.1,0.2,0.2,0.4,0.3,0.7c0,0.1,0,0.2,0.1,0.4h0
		c0,0,0,0,0,0.1C20.3,5.1,20.1,5.6,19.8,5.9z"/>
	<path class="st0" d="M22.3,10.7L22.3,10.7l-2.6,2.6h0c-0.2,0.2-0.4,0.3-0.6,0.4c-0.7,0.3-1.5,0.1-2.1-0.4c-0.4-0.4-0.6-0.9-0.6-1.4
		c0-0.3,0-0.5,0.1-0.7c0.1-0.2,0.2-0.4,0.4-0.6l0,0l2.6-2.6l0,0c0.2-0.2,0.5-0.3,0.7-0.4c0.7-0.2,1.4-0.1,2,0.5
		C23,8.7,23,9.9,22.3,10.7z"/>
</g>
</svg>
