<?xml version="1.0" encoding="utf-8"?>
<!-- Generator: Adobe Illustrator 27.0.0, SVG Export Plug-In . SVG Version: 6.00 Build 0)  -->
<svg version="1.1" id="Layer_1" xmlns="http://www.w3.org/2000/svg" xmlns:xlink="http://www.w3.org/1999/xlink" x="0px" y="0px"
	 viewBox="0 0 201 40" style="enable-background:new 0 0 201 40;" xml:space="preserve">
<style type="text/css">
	.st0{fill:#F16241;}
	.st1{opacity:0.6;fill:#121110;}
	.st2{fill:#0F1212;}
	.st3{fill:#121110;}
</style>
<g>
	<g>
		<path class="st0" d="M24.8,13.7v14.7c0,0.9-0.3,1.7-0.8,2.3l-0.9,0.9c-0.7,0.5-1.5,0.8-2.3,0.8h0c-0.6,0-1.2-0.2-1.8-0.4
			c0,0,0,0,0,0c-0.9-0.5-1.6-1.3-1.9-2.2c-0.1-0.4-0.2-0.8-0.2-1.3c0-0.3,0-0.5,0.1-0.8C17,27.9,17,28.2,17,28.4V13.2
			c0.1-0.8,0.4-1.5,0.9-2c0,0,0,0,0,0l0.4-0.4c0,0,0,0,0,0c0.2-0.2,0.5-0.4,0.8-0.6c0.8-0.5,1.8-0.6,2.8-0.4c0,0,0.1,0,0.1,0
			c0.8,0.2,1.6,0.7,2.2,1.4c0,0,0,0,0,0c0.5,0.6,0.8,1.4,0.8,2.3h0C24.8,13.6,24.8,13.6,24.8,13.7z"/>
		<path class="st0" d="M39.6,13.7v14.7c0,0.9-0.3,1.7-0.8,2.3L38,31.6c-0.7,0.5-1.5,0.8-2.3,0.8h0c-0.6,0-1.2-0.2-1.8-0.4
			c0,0,0,0,0,0c-0.9-0.5-1.6-1.3-1.9-2.2c-0.1-0.4-0.2-0.8-0.2-1.3c0-0.3,0-0.5,0.1-0.8c-0.1,0.3-0.1,0.5-0.1,0.8V13.2
			c0.1-0.8,0.4-1.5,0.9-2c0,0,0,0,0,0l0.4-0.4c0,0,0,0,0,0c0.2-0.2,0.5-0.4,0.8-0.6c0.8-0.5,1.8-0.6,2.8-0.4c0,0,0.1,0,0.1,0
			c0.8,0.2,1.6,0.7,2.2,1.4c0,0,0,0,0,0c0.5,0.6,0.8,1.4,0.8,2.3h0C39.6,13.6,39.6,13.6,39.6,13.7z"/>
		<path class="st1" d="M21.6,17"/>
		<path class="st2" d="M23.8,16.3L23.8,16.3L8.9,31.2h0c-1.5,1.5-4,1.5-5.6,0c-1.5-1.5-1.5-4,0-5.6l0,0l14.9-14.9l0,0l0,0
			c0.2-0.2,0.4-0.3,0.6-0.5c0.1,0,0.1-0.1,0.2-0.1c0,0,0,0,0,0c0.1,0,0.1-0.1,0.2-0.1c0,0,0,0,0,0c0,0,0.1,0,0.1-0.1c0,0,0,0,0,0
			c0.1,0,0.1,0,0.2-0.1c0.1,0,0.1,0,0.2-0.1c0.2-0.1,0.3-0.1,0.5-0.1c0.1,0,0.1,0,0.2,0c0.1,0,0.2,0,0.4,0c0.1,0,0.2,0,0.4,0h0
			c0.2,0,0.5,0,0.7,0.1c0.1,0,0.1,0,0.2,0c0.1,0,0.1,0,0.2,0.1c0.1,0,0.1,0,0.2,0.1c0,0,0.1,0,0.1,0.1c0.2,0.1,0.4,0.2,0.5,0.3
			c0.1,0,0.1,0.1,0.2,0.1c0.1,0.1,0.2,0.1,0.3,0.2c0,0,0.1,0.1,0.1,0.1c0,0,0,0,0,0c0,0,0.1,0.1,0.1,0.1c0,0,0,0,0,0
			c0,0,0.1,0.1,0.1,0.1c0,0,0,0,0,0c0,0,0.1,0.1,0.1,0.1c0,0,0,0,0,0c0,0,0.1,0.1,0.1,0.1c0,0.1,0.1,0.1,0.1,0.2
			c0.4,0.6,0.6,1.2,0.6,2h0c0,0.1,0,0.1,0,0.1C24.8,14.6,24.5,15.5,23.8,16.3z"/>
		<path class="st2" d="M38.6,16.3L38.6,16.3l-6.8,6.8L24.8,30l-1.2,1.2h0c-1.5,1.5-4,1.5-5.6,0c-0.8-0.8-1.2-1.8-1.2-2.8
			s0.4-2,1.2-2.8l0,0l6.7-6.7l8.2-8.2l0,0l0,0c0,0,0,0,0.1,0c0,0,0,0,0,0c0.1,0,0.1-0.1,0.2-0.1c0,0,0.1-0.1,0.1-0.1
			c0,0,0.1-0.1,0.1-0.1c0.1,0,0.1-0.1,0.2-0.1c0.1,0,0.1-0.1,0.2-0.1c0.1,0,0.1-0.1,0.2-0.1c0.1,0,0.1-0.1,0.2-0.1
			c0.1,0,0.1,0,0.2-0.1c0.1,0,0.1,0,0.2-0.1c0.2-0.1,0.3-0.1,0.5-0.1c0.1,0,0.1,0,0.2,0c0.1,0,0.2,0,0.4,0c0.1,0,0.2,0,0.4,0h0
			c0.2,0,0.5,0,0.7,0.1c0.1,0,0.1,0,0.2,0c0,0,0.1,0,0.1,0c0.1,0,0.1,0.1,0.2,0.1c0,0,0.1,0,0.1,0.1c0.1,0,0.2,0.1,0.2,0.1
			c0.1,0,0.2,0.1,0.3,0.2c0,0,0,0,0.1,0c0.1,0,0.1,0.1,0.2,0.1c0.1,0.1,0.2,0.1,0.3,0.2c0,0,0.1,0.1,0.1,0.1c0,0,0,0,0,0
			c0,0,0.1,0.1,0.1,0.1c0,0,0,0,0,0c0,0,0.1,0.1,0.1,0.1c0,0,0,0,0,0c0,0,0.1,0.1,0.1,0.1c0,0,0,0,0,0c0,0,0.1,0.1,0.1,0.1
			c0.3,0.4,0.5,0.9,0.6,1.4c0.1,0.2,0.1,0.5,0.1,0.8h0c0,0.1,0,0.1,0,0.1C39.6,14.6,39.3,15.5,38.6,16.3z"/>
		<path class="st2" d="M43.7,25.9L43.7,25.9l-5.3,5.3h0c-0.4,0.4-0.8,0.7-1.3,0.9c-1.4,0.6-3.1,0.3-4.3-0.9
			c-0.8-0.8-1.2-1.8-1.2-2.8c0-0.5,0.1-1,0.3-1.5c0.2-0.5,0.5-0.9,0.9-1.3l0,0l5.3-5.3l0,0c0.4-0.4,0.9-0.7,1.4-0.9
			c1.4-0.4,2.9-0.1,4,1C45.1,22,45.2,24.4,43.7,25.9z"/>
	</g>
	<g>
		<path class="st3" d="M54.1,12.4h3.8v1.1c1.3-0.7,2.6-1.1,4.1-1.1c2.4,0,4.6,0.9,6.1,2.7c1.7-1.8,3.5-2.7,6.1-2.7
			c4.2,0,8,3.3,8,7.7v9.7h-3.8V20c0-2.4-1.9-4.3-4.2-4.3c-2.3,0-4.2,1.9-4.2,4.3v9.7h-3.8V20c0-2.4-1.8-4.3-4.2-4.3
			c-2.3,0-4.1,2-4.1,4.3v9.7h-3.8V12.4z"/>
		<path class="st3" d="M98.4,28.1c-1.5,1.1-3.3,1.6-5.1,1.6c-4.7,0-9-3.7-9-8.6s4.3-8.7,9-8.7c1.8,0,3.6,0.5,5.1,1.6v-2.5h3.8v18.2
			h-3.8V28.1z M93.3,26.2c2.8,0,5.1-2.4,5.1-5.3c0-2.9-2.3-5.3-5.1-5.3c-2.8,0-5.2,2.3-5.2,5.3C88.1,23.9,90.4,26.2,93.3,26.2z"/>
		<path class="st3" d="M122.1,26.4c-0.9,0-1.5-0.8-1.5-1.7v-8.9h-3.8v8.9c0,0.7,0.2,1.3,0.4,1.9c0.9,2.1,2.7,3.2,4.9,3.2h1.5v-3.4
			H122.1z"/>
		<rect x="116.7" y="9.9" class="st3" width="3.8" height="2.5"/>
		<path class="st3" d="M142.4,24.5c-1.6,3.2-4.8,5.2-8.3,5.2c-4.7,0-9-3.7-9-8.6c0-5,4.3-8.7,9-8.7c4.7,0,8.9,3.7,8.9,8.7v1.7h-13.8
			c0.8,2.1,2.5,3.6,4.9,3.6c1.5,0,3-0.7,4-1.8H142.4z M139,19.3c-0.8-2.1-2.6-3.5-4.9-3.5c-2.3,0-4.1,1.5-4.8,3.5H139z"/>
		<path class="st3" d="M162.8,22.9c-1.3,4.2-5,7-9,7c-4.8,0-9.1-3.8-9.1-8.9c0-5,4.3-8.8,9.1-8.8c3.9,0,7.7,2.8,9,7h-4
			c-0.9-2.2-2.9-3.6-5-3.6c-2.9,0-5.3,2.4-5.3,5.4c0,3,2.4,5.4,5.3,5.4c2.1,0,4.1-1.4,5-3.6H162.8z"/>
		<path class="st3" d="M165.7,6.9h3.8v6.7c1.3-0.8,2.5-1.2,4.1-1.2c4.2,0,8,3.3,8,7.7v9.6h-3.8v-9.6c0-2.4-1.8-4.3-4.2-4.3
			c-2.3,0-4.1,1.9-4.1,4.3v9.6h-3.8V6.9z"/>
		<path class="st3" d="M197.3,24.9c0,3.2-3.1,5.2-6.4,5.2c-3.1,0.1-6.4-1.5-6.9-6h3.6c0.4,2.1,1.6,2.5,3,2.5c1.6,0,3-0.6,3-1.8
			c0-1.6-2.3-1.8-4.5-2.3c-1.7-0.4-5-1.5-5-4.9c0-3.3,3.2-5.3,6.6-5.3c3.3,0,6.5,1.8,6.8,5.8l-3.8,0.1c0-0.3,0-1.5-0.9-2.2
			c-1.2-1.1-3.5-0.7-4.2,0.5c-0.1,0.1-0.4,0.8-0.2,1.5c0.5,1.2,2.3,1.4,4.4,1.9C195.1,20.5,197.3,22.2,197.3,24.9z"/>
		<path class="st0" d="M124.3,12.4v3.8H121c0,0-0.1,0-0.1,0l-5.4,0l-2.7,0c-1.9,0-3.5,1.5-3.5,3.3l0,10.1l-4,0l0-10.1
			c0-3.9,3.4-7.2,7.5-7.2h2.7l5.4,0H124.3z"/>
		<line class="st3" x1="121" y1="16.3" x2="119" y2="16.3"/>
	</g>
</g>
</svg>
