<?xml version="1.0" encoding="utf-8"?>
<!-- Generator: Adobe Illustrator 27.0.0, SVG Export Plug-In . SVG Version: 6.00 Build 0)  -->
<svg version="1.1" id="Layer_1" xmlns="http://www.w3.org/2000/svg" xmlns:xlink="http://www.w3.org/1999/xlink" x="0px" y="0px"
	 viewBox="0 0 84.3 16" style="enable-background:new 0 0 84.3 16;" xml:space="preserve">
<style type="text/css">
	.st0{fill-rule:evenodd;clip-rule:evenodd;fill:#EA4B71;}
	.st1{fill-rule:evenodd;clip-rule:evenodd;fill:#101330;}
	.st2{fill:#101330;}
	.st3{fill:#F16241;}
	.st4{opacity:0.6;fill:#121110;}
	.st5{fill:#0F1212;}
	.st6{fill:#121110;}
</style>
<g>
	<path class="st3" d="M10.9,4.8V11c0,0.4-0.1,0.7-0.3,1l-0.4,0.4c-0.3,0.2-0.6,0.3-1,0.3h0c-0.3,0-0.5-0.1-0.7-0.2c0,0,0,0,0,0
		c-0.4-0.2-0.6-0.5-0.8-0.9c-0.1-0.2-0.1-0.4-0.1-0.5c0-0.1,0-0.2,0-0.3c0,0.1,0,0.2,0,0.3V4.6c0-0.3,0.2-0.6,0.4-0.9c0,0,0,0,0,0
		l0.2-0.2c0,0,0,0,0,0c0.1-0.1,0.2-0.2,0.3-0.2c0.4-0.2,0.8-0.3,1.2-0.2c0,0,0,0,0,0c0.4,0.1,0.7,0.3,0.9,0.6c0,0,0,0,0,0
		C10.7,4.1,10.8,4.4,10.9,4.8L10.9,4.8C10.9,4.8,10.9,4.8,10.9,4.8z"/>
	<path class="st3" d="M17,4.8V11c0,0.4-0.1,0.7-0.3,1l-0.4,0.4c-0.3,0.2-0.6,0.3-1,0.3h0c-0.3,0-0.5-0.1-0.7-0.2c0,0,0,0,0,0
		c-0.4-0.2-0.6-0.5-0.8-0.9c-0.1-0.2-0.1-0.4-0.1-0.5c0-0.1,0-0.2,0-0.3c0,0.1,0,0.2,0,0.3V4.6c0-0.3,0.2-0.6,0.4-0.9c0,0,0,0,0,0
		l0.2-0.2c0,0,0,0,0,0c0.1-0.1,0.2-0.2,0.3-0.2c0.4-0.2,0.8-0.3,1.2-0.2c0,0,0,0,0,0c0.4,0.1,0.7,0.3,0.9,0.6c0,0,0,0,0,0
		C16.9,4.1,17,4.4,17,4.8L17,4.8C17,4.8,17,4.8,17,4.8z"/>
	<path class="st5" d="M10.4,5.9L10.4,5.9l-6.2,6.2h0c-0.6,0.6-1.7,0.6-2.3,0c-0.6-0.6-0.6-1.7,0-2.3l0,0l6.2-6.2l0,0l0,0
		c0.1-0.1,0.2-0.1,0.3-0.2c0,0,0,0,0.1,0c0,0,0,0,0,0c0,0,0,0,0.1,0c0,0,0,0,0,0c0,0,0,0,0.1,0c0,0,0,0,0,0c0,0,0,0,0.1,0
		c0,0,0,0,0.1,0c0.1,0,0.1,0,0.2-0.1c0,0,0.1,0,0.1,0c0.1,0,0.1,0,0.2,0c0.1,0,0.1,0,0.2,0h0c0.1,0,0.2,0,0.3,0c0,0,0.1,0,0.1,0
		c0,0,0,0,0.1,0c0,0,0.1,0,0.1,0c0,0,0,0,0.1,0c0.1,0,0.2,0.1,0.2,0.1c0,0,0,0,0.1,0c0,0,0.1,0.1,0.1,0.1c0,0,0,0,0,0c0,0,0,0,0,0
		c0,0,0,0,0,0c0,0,0,0,0,0c0,0,0,0,0,0c0,0,0,0,0,0c0,0,0,0,0,0.1c0,0,0,0,0,0c0,0,0,0,0,0.1c0,0,0,0,0,0.1c0.2,0.2,0.2,0.5,0.3,0.8
		h0c0,0,0,0,0,0.1C10.9,5.2,10.7,5.6,10.4,5.9z"/>
	<path class="st5" d="M16.6,5.9L16.6,5.9l-2.9,2.9l-2.9,2.9l-0.5,0.5h0c-0.6,0.6-1.7,0.6-2.3,0c-0.3-0.3-0.5-0.7-0.5-1.2
		c0-0.4,0.2-0.8,0.5-1.2l0,0L10.9,7l3.4-3.4l0,0l0,0c0,0,0,0,0,0c0,0,0,0,0,0c0,0,0,0,0.1-0.1c0,0,0,0,0,0c0,0,0,0,0,0
		c0,0,0,0,0.1,0c0,0,0,0,0.1,0c0,0,0,0,0.1,0c0,0,0,0,0.1,0c0,0,0,0,0.1,0c0,0,0,0,0.1,0c0.1,0,0.1,0,0.2-0.1c0,0,0.1,0,0.1,0
		c0.1,0,0.1,0,0.2,0c0.1,0,0.1,0,0.2,0h0c0.1,0,0.2,0,0.3,0c0,0,0.1,0,0.1,0c0,0,0,0,0.1,0c0,0,0.1,0,0.1,0c0,0,0,0,0.1,0
		c0,0,0.1,0,0.1,0c0,0,0.1,0,0.1,0.1c0,0,0,0,0,0c0,0,0,0,0.1,0c0,0,0.1,0.1,0.1,0.1c0,0,0,0,0,0c0,0,0,0,0,0c0,0,0,0,0,0
		c0,0,0,0,0,0c0,0,0,0,0,0c0,0,0,0,0,0c0,0,0,0,0,0.1c0,0,0,0,0,0c0,0,0,0,0,0.1C16.9,4,16.9,4.2,17,4.4c0,0.1,0,0.2,0,0.3h0
		c0,0,0,0,0,0.1C17,5.2,16.9,5.6,16.6,5.9z"/>
	<path class="st5" d="M18.8,9.9L18.8,9.9l-2.2,2.2h0c-0.2,0.2-0.3,0.3-0.5,0.4c-0.6,0.2-1.3,0.1-1.8-0.4c-0.3-0.3-0.5-0.7-0.5-1.2
		c0-0.2,0-0.4,0.1-0.6c0.1-0.2,0.2-0.4,0.4-0.5l0,0l2.2-2.2l0,0c0.2-0.2,0.4-0.3,0.6-0.4c0.6-0.2,1.2-0.1,1.7,0.4
		C19.3,8.3,19.4,9.3,18.8,9.9z"/>
	<g>
		<path class="st6" d="M23.1,4.3h1.6v0.5c0.5-0.3,1.1-0.5,1.7-0.5c1,0,1.9,0.4,2.5,1.1c0.7-0.7,1.5-1.1,2.5-1.1
			c1.8,0,3.3,1.4,3.3,3.2v4h-1.6v-4c0-1-0.8-1.8-1.8-1.8c-1,0-1.7,0.8-1.7,1.8v4h-1.6v-4c0-1-0.8-1.8-1.8-1.8c-1,0-1.7,0.8-1.7,1.8
			v4h-1.6V4.3z"/>
		<path class="st6" d="M41.6,10.8c-0.6,0.4-1.4,0.7-2.1,0.7c-2,0-3.8-1.6-3.8-3.6s1.8-3.6,3.8-3.6c0.8,0,1.5,0.2,2.1,0.7v-1h1.6v7.6
			h-1.6V10.8z M39.5,10.1c1.2,0,2.1-1,2.1-2.2c0-1.2-1-2.2-2.1-2.2c-1.2,0-2.2,1-2.2,2.2C37.3,9.1,38.3,10.1,39.5,10.1z"/>
		<path class="st6" d="M51.5,10.1c-0.4,0-0.6-0.4-0.6-0.7V5.7h-1.6v3.7c0,0.3,0.1,0.5,0.2,0.8c0.4,0.9,1.1,1.3,2,1.3h0.6v-1.4H51.5z
			"/>
		<rect x="49.3" y="3.2" class="st6" width="1.6" height="1.1"/>
		<path class="st6" d="M60,9.3c-0.7,1.3-2,2.2-3.5,2.2c-2,0-3.7-1.6-3.7-3.6c0-2.1,1.8-3.6,3.7-3.6c2,0,3.7,1.5,3.7,3.6v0.7h-5.8
			c0.3,0.9,1.1,1.5,2,1.5c0.6,0,1.2-0.3,1.7-0.8H60z M58.6,7.2c-0.4-0.9-1.1-1.5-2-1.5c-1,0-1.7,0.6-2,1.5H58.6z"/>
		<path class="st6" d="M68.5,8.7c-0.5,1.8-2.1,2.9-3.7,2.9c-2,0-3.8-1.6-3.8-3.7c0-2.1,1.8-3.7,3.8-3.7c1.6,0,3.2,1.2,3.7,2.9h-1.7
			c-0.4-0.9-1.2-1.5-2.1-1.5c-1.2,0-2.2,1-2.2,2.3c0,1.2,1,2.3,2.2,2.3c0.9,0,1.7-0.6,2.1-1.5H68.5z"/>
		<path class="st6" d="M69.7,2h1.6v2.8c0.5-0.3,1-0.5,1.7-0.5c1.8,0,3.3,1.4,3.3,3.2v4h-1.6v-4c0-1-0.8-1.8-1.8-1.8
			c-1,0-1.7,0.8-1.7,1.8v4h-1.6V2z"/>
		<path class="st6" d="M83,9.5c0,1.3-1.3,2.2-2.7,2.2c-1.3,0-2.7-0.6-2.9-2.5h1.5c0.1,0.9,0.7,1.1,1.2,1.1c0.7,0,1.2-0.3,1.2-0.8
			c0-0.7-1-0.7-1.9-1c-0.7-0.2-2.1-0.6-2.1-2c0-1.4,1.4-2.2,2.8-2.2c1.4,0,2.7,0.8,2.9,2.4l-1.6,0c0-0.1,0-0.6-0.4-0.9
			c-0.5-0.4-1.5-0.3-1.8,0.2c0,0-0.2,0.3-0.1,0.6c0.2,0.5,1,0.6,1.8,0.8C82,7.6,83,8.4,83,9.5z"/>
		<path class="st3" d="M52.4,4.3v1.6h-1.4c0,0,0,0,0,0l-2.3,0l-1.1,0c-0.8,0-1.5,0.6-1.5,1.4l0,4.2l-1.7,0l0-4.2c0-1.6,1.4-3,3.1-3
			h1.1l2.3,0H52.4z"/>
	</g>
</g>
</svg>
