<?xml version="1.0" encoding="utf-8"?>
<!-- Generator: Adobe Illustrator 27.0.0, SVG Export Plug-In . SVG Version: 6.00 Build 0)  -->
<svg version="1.1" id="Layer_1" xmlns="http://www.w3.org/2000/svg" xmlns:xlink="http://www.w3.org/1999/xlink" x="0px" y="0px"
	 viewBox="0 0 201 40" style="enable-background:new 0 0 201 40;" xml:space="preserve">
<style type="text/css">
	.st0{fill:#F16241;}
	.st1{opacity:0.6;fill:#121110;}
	.st2{fill:#0F1212;}
	.st3{fill:#121110;}
</style>
<g>
	<g>
		<path class="st0" d="M26.4,12.7v14.7c0,0.9-0.3,1.7-0.8,2.3l-0.9,0.9c-0.7,0.5-1.5,0.8-2.3,0.8h0c-0.6,0-1.2-0.2-1.8-0.4
			c0,0,0,0,0,0c-0.9-0.5-1.6-1.3-1.9-2.2c-0.1-0.4-0.2-0.8-0.2-1.3c0-0.3,0-0.5,0.1-0.8c-0.1,0.3-0.1,0.5-0.1,0.8V12.2
			c0.1-0.8,0.4-1.5,0.9-2c0,0,0,0,0,0l0.4-0.4c0,0,0,0,0,0c0.2-0.2,0.5-0.4,0.8-0.6c0.8-0.5,1.8-0.6,2.8-0.4c0,0,0.1,0,0.1,0
			c0.8,0.2,1.6,0.7,2.2,1.4c0,0,0,0,0,0c0.5,0.6,0.8,1.4,0.8,2.3h0C26.4,12.6,26.4,12.6,26.4,12.7z"/>
		<path class="st0" d="M41.2,12.7v14.7c0,0.9-0.3,1.7-0.8,2.3l-0.9,0.9c-0.7,0.5-1.5,0.8-2.3,0.8h0c-0.6,0-1.2-0.2-1.8-0.4
			c0,0,0,0,0,0c-0.9-0.5-1.6-1.3-1.9-2.2c-0.1-0.4-0.2-0.8-0.2-1.3c0-0.3,0-0.5,0.1-0.8c-0.1,0.3-0.1,0.5-0.1,0.8V12.2
			c0.1-0.8,0.4-1.5,0.9-2c0,0,0,0,0,0l0.4-0.4c0,0,0,0,0,0c0.2-0.2,0.5-0.4,0.8-0.6c0.8-0.5,1.8-0.6,2.8-0.4c0,0,0.1,0,0.1,0
			c0.8,0.2,1.6,0.7,2.2,1.4c0,0,0,0,0,0c0.5,0.6,0.8,1.4,0.8,2.3h0C41.2,12.6,41.2,12.6,41.2,12.7z"/>
		<path class="st1" d="M23.2,16"/>
		<path class="st2" d="M25.4,15.3L25.4,15.3L10.5,30.2h0c-1.5,1.5-4,1.5-5.6,0c-1.5-1.5-1.5-4,0-5.6l0,0L19.8,9.7l0,0l0,0
			c0.2-0.2,0.4-0.3,0.6-0.5c0.1,0,0.1-0.1,0.2-0.1c0,0,0,0,0,0c0.1,0,0.1-0.1,0.2-0.1c0,0,0,0,0,0c0,0,0.1,0,0.1-0.1c0,0,0,0,0,0
			C21,9,21,9,21.1,9c0.1,0,0.1,0,0.2-0.1c0.2-0.1,0.3-0.1,0.5-0.1c0.1,0,0.1,0,0.2,0c0.1,0,0.2,0,0.4,0c0.1,0,0.2,0,0.4,0h0
			c0.2,0,0.5,0,0.7,0.1c0.1,0,0.1,0,0.2,0c0.1,0,0.1,0,0.2,0.1c0.1,0,0.1,0,0.2,0.1c0,0,0.1,0,0.1,0.1c0.2,0.1,0.4,0.2,0.5,0.3
			c0.1,0,0.1,0.1,0.2,0.1c0.1,0.1,0.2,0.1,0.3,0.2c0,0,0.1,0.1,0.1,0.1c0,0,0,0,0,0c0,0,0.1,0.1,0.1,0.1c0,0,0,0,0,0
			c0,0,0.1,0.1,0.1,0.1c0,0,0,0,0,0c0,0,0.1,0.1,0.1,0.1c0,0,0,0,0,0c0,0,0.1,0.1,0.1,0.1c0,0.1,0.1,0.1,0.1,0.2
			c0.4,0.6,0.6,1.2,0.6,2h0c0,0.1,0,0.1,0,0.1C26.4,13.6,26.1,14.5,25.4,15.3z"/>
		<path class="st2" d="M40.2,15.3L40.2,15.3l-6.8,6.8L26.4,29l-1.2,1.2h0c-1.5,1.5-4,1.5-5.6,0c-0.8-0.8-1.2-1.8-1.2-2.8
			c0-1,0.4-2,1.2-2.8l0,0l6.7-6.7l8.2-8.2l0,0l0,0c0,0,0,0,0.1,0c0,0,0,0,0,0c0.1,0,0.1-0.1,0.2-0.1c0,0,0.1-0.1,0.1-0.1
			c0,0,0.1-0.1,0.1-0.1c0.1,0,0.1-0.1,0.2-0.1c0.1,0,0.1-0.1,0.2-0.1c0.1,0,0.1-0.1,0.2-0.1c0.1,0,0.1-0.1,0.2-0.1
			c0.1,0,0.1,0,0.2-0.1c0.1,0,0.1,0,0.2-0.1c0.2-0.1,0.3-0.1,0.5-0.1c0.1,0,0.1,0,0.2,0c0.1,0,0.2,0,0.4,0c0.1,0,0.2,0,0.4,0h0
			c0.2,0,0.5,0,0.7,0.1c0.1,0,0.1,0,0.2,0c0,0,0.1,0,0.1,0c0.1,0,0.1,0.1,0.2,0.1c0,0,0.1,0,0.1,0.1c0.1,0,0.2,0.1,0.2,0.1
			c0.1,0,0.2,0.1,0.3,0.2c0,0,0,0,0.1,0c0.1,0,0.1,0.1,0.2,0.1c0.1,0.1,0.2,0.1,0.3,0.2c0,0,0.1,0.1,0.1,0.1c0,0,0,0,0,0
			c0,0,0.1,0.1,0.1,0.1c0,0,0,0,0,0c0,0,0.1,0.1,0.1,0.1c0,0,0,0,0,0c0,0,0.1,0.1,0.1,0.1c0,0,0,0,0,0c0,0,0.1,0.1,0.1,0.1
			c0.3,0.4,0.5,0.9,0.6,1.4c0.1,0.2,0.1,0.5,0.1,0.8h0c0,0.1,0,0.1,0,0.1C41.2,13.6,40.8,14.5,40.2,15.3z"/>
		<path class="st2" d="M45.3,24.9L45.3,24.9L40,30.2h0c-0.4,0.4-0.8,0.7-1.3,0.9c-1.4,0.6-3.1,0.3-4.3-0.9c-0.8-0.8-1.2-1.8-1.2-2.8
			c0-0.5,0.1-1,0.3-1.5c0.2-0.5,0.5-0.9,0.9-1.3l0,0l5.3-5.3l0,0c0.4-0.4,0.9-0.7,1.4-0.9c1.4-0.4,2.9-0.1,4,1
			C46.7,21,46.7,23.4,45.3,24.9z"/>
	</g>
	<g>
		<path class="st3" d="M55.6,11.4h3.8v1.1c1.3-0.7,2.6-1.1,4.1-1.1c2.4,0,4.6,0.9,6.1,2.7c1.7-1.8,3.5-2.7,6.1-2.7
			c4.2,0,8,3.3,8,7.7v9.7H80V19c0-2.4-1.9-4.3-4.2-4.3c-2.3,0-4.2,1.9-4.2,4.3v9.7h-3.8V19c0-2.4-1.8-4.3-4.2-4.3
			c-2.3,0-4.1,2-4.1,4.3v9.7h-3.8V11.4z"/>
		<path class="st3" d="M99.9,27.1c-1.5,1.1-3.3,1.6-5.1,1.6c-4.7,0-9-3.7-9-8.6s4.3-8.7,9-8.7c1.8,0,3.6,0.5,5.1,1.6v-2.5h3.8v18.2
			h-3.8V27.1z M94.8,25.2c2.8,0,5.1-2.4,5.1-5.3c0-2.9-2.3-5.3-5.1-5.3c-2.8,0-5.2,2.3-5.2,5.3C89.7,22.9,92,25.2,94.8,25.2z"/>
		<path class="st3" d="M123.6,25.4c-0.9,0-1.5-0.8-1.5-1.7v-8.9h-3.8v8.9c0,0.7,0.2,1.3,0.4,1.9c0.9,2.1,2.7,3.2,4.9,3.2h1.5v-3.4
			H123.6z"/>
		<rect x="118.3" y="8.9" class="st3" width="3.8" height="2.5"/>
		<path class="st3" d="M144,23.5c-1.6,3.2-4.8,5.2-8.3,5.2c-4.7,0-9-3.7-9-8.6c0-5,4.3-8.7,9-8.7c4.7,0,8.9,3.7,8.9,8.7v1.7h-13.8
			c0.8,2.1,2.5,3.6,4.9,3.6c1.5,0,3-0.7,4-1.8H144z M140.6,18.3c-0.8-2.1-2.6-3.5-4.9-3.5c-2.3,0-4.1,1.5-4.8,3.5H140.6z"/>
		<path class="st3" d="M164.4,21.9c-1.3,4.2-5,7-9,7c-4.8,0-9.1-3.8-9.1-8.9c0-5,4.3-8.8,9.1-8.8c3.9,0,7.7,2.8,9,7h-4
			c-0.9-2.2-2.9-3.6-5-3.6c-2.9,0-5.3,2.4-5.3,5.4c0,3,2.4,5.4,5.3,5.4c2.1,0,4.1-1.4,5-3.6H164.4z"/>
		<path class="st3" d="M167.3,5.9h3.8v6.7c1.3-0.8,2.5-1.2,4.1-1.2c4.2,0,8,3.3,8,7.7v9.6h-3.8v-9.6c0-2.4-1.8-4.3-4.2-4.3
			c-2.3,0-4.1,1.9-4.1,4.3v9.6h-3.8V5.9z"/>
		<path class="st3" d="M198.9,23.9c0,3.2-3.1,5.2-6.4,5.2c-3.1,0.1-6.4-1.5-6.9-6h3.6c0.4,2.1,1.6,2.5,3,2.5c1.6,0,3-0.6,3-1.8
			c0-1.6-2.3-1.8-4.5-2.3c-1.7-0.4-5-1.5-5-4.9c0-3.3,3.2-5.3,6.6-5.3c3.3,0,6.5,1.8,6.8,5.8l-3.8,0.1c0-0.3,0-1.5-0.9-2.2
			c-1.2-1.1-3.5-0.7-4.2,0.5c-0.1,0.1-0.4,0.8-0.2,1.5c0.5,1.2,2.3,1.4,4.4,1.9C196.7,19.5,198.9,21.2,198.9,23.9z"/>
		<path class="st0" d="M125.9,11.4v3.8h-3.3c0,0-0.1,0-0.1,0l-5.4,0l-2.7,0c-1.9,0-3.5,1.5-3.5,3.3l0,10.1l-4,0l0-10.1
			c0-3.9,3.4-7.2,7.5-7.2h2.7l5.4,0H125.9z"/>
		<line class="st3" x1="122.6" y1="15.3" x2="120.5" y2="15.3"/>
	</g>
</g>
</svg>
